<svg width="251" height="39" viewBox="0 0 251 39" fill="none" xmlns="http://www.w3.org/2000/svg">
<path d="M14.3555 30H8.76953V7.59766H0.351562V1.99219H22.7539V7.59766H14.3555V30ZM28.6523 30H23.3203V9.08203H24.6094L26.3672 11.5625C27.2266 10.7812 28.2031 10.1823 29.2969 9.76562C30.3906 9.33594 31.5234 9.12109 32.6953 9.12109H37.4023V14.4336H32.6953C32.1354 14.4336 31.6081 14.5378 31.1133 14.7461C30.6185 14.9544 30.1888 15.2409 29.8242 15.6055C29.4596 15.9701 29.1732 16.3997 28.9648 16.8945C28.7565 17.3893 28.6523 17.9167 28.6523 18.4766V30ZM59.7461 30H58.457L56.3867 27.1289C55.8789 27.5846 55.3385 28.0143 54.7656 28.418C54.2057 28.8086 53.6133 29.1536 52.9883 29.4531C52.3633 29.7396 51.7188 29.9674 51.0547 30.1367C50.4036 30.306 49.7396 30.3906 49.0625 30.3906C47.5911 30.3906 46.2044 30.1432 44.9023 29.6484C43.6133 29.1536 42.4805 28.4375 41.5039 27.5C40.5404 26.5495 39.7786 25.3906 39.2188 24.0234C38.6589 22.6562 38.3789 21.1003 38.3789 19.3555C38.3789 17.7279 38.6589 16.237 39.2188 14.8828C39.7786 13.5156 40.5404 12.3438 41.5039 11.3672C42.4805 10.3906 43.6133 9.63542 44.9023 9.10156C46.2044 8.55469 47.5911 8.28125 49.0625 8.28125C49.7396 8.28125 50.4102 8.36589 51.0742 8.53516C51.7383 8.70443 52.3828 8.9388 53.0078 9.23828C53.6328 9.53776 54.2253 9.88932 54.7852 10.293C55.3581 10.6966 55.8919 11.1328 56.3867 11.6016L58.457 9.12109H59.7461V30ZM54.375 19.3555C54.375 18.6263 54.2318 17.9232 53.9453 17.2461C53.6719 16.556 53.2943 15.9505 52.8125 15.4297C52.3307 14.8958 51.7643 14.4727 51.1133 14.1602C50.4753 13.8346 49.7917 13.6719 49.0625 13.6719C48.3333 13.6719 47.6432 13.7956 46.9922 14.043C46.3542 14.2904 45.7943 14.6549 45.3125 15.1367C44.8438 15.6185 44.4727 16.2174 44.1992 16.9336C43.9258 17.6367 43.7891 18.444 43.7891 19.3555C43.7891 20.2669 43.9258 21.0807 44.1992 21.7969C44.4727 22.5 44.8438 23.0924 45.3125 23.5742C45.7943 24.056 46.3542 24.4206 46.9922 24.668C47.6432 24.9154 48.3333 25.0391 49.0625 25.0391C49.7917 25.0391 50.4753 24.8828 51.1133 24.5703C51.7643 24.2448 52.3307 23.8216 52.8125 23.3008C53.2943 22.7669 53.6719 22.1615 53.9453 21.4844C54.2318 20.7943 54.375 20.0846 54.375 19.3555ZM69.7656 30L61.7969 9.08203H67.8711L72.4414 22.1289L76.9922 9.08203H83.0859L75.1172 30H69.7656ZM92.8125 24.8828C93.0208 24.9479 93.2292 24.9935 93.4375 25.0195C93.6458 25.0326 93.8542 25.0391 94.0625 25.0391C94.5833 25.0391 95.0846 24.9674 95.5664 24.8242C96.0482 24.681 96.4974 24.4792 96.9141 24.2188C97.3438 23.9453 97.7214 23.6198 98.0469 23.2422C98.3854 22.8516 98.6589 22.4219 98.8672 21.9531L102.773 25.8789C102.279 26.582 101.706 27.2135 101.055 27.7734C100.417 28.3333 99.7201 28.8086 98.9648 29.1992C98.2227 29.5898 97.4349 29.8828 96.6016 30.0781C95.7812 30.2865 94.9349 30.3906 94.0625 30.3906C92.5911 30.3906 91.2044 30.1172 89.9023 29.5703C88.6133 29.0234 87.4805 28.2617 86.5039 27.2852C85.5404 26.3086 84.7786 25.1497 84.2188 23.8086C83.6589 22.4544 83.3789 20.9701 83.3789 19.3555C83.3789 17.7018 83.6589 16.1914 84.2188 14.8242C84.7786 13.457 85.5404 12.2917 86.5039 11.3281C87.4805 10.3646 88.6133 9.61589 89.9023 9.08203C91.2044 8.54818 92.5911 8.28125 94.0625 8.28125C94.9349 8.28125 95.7878 8.38542 96.6211 8.59375C97.4544 8.80208 98.2422 9.10156 98.9844 9.49219C99.7396 9.88281 100.443 10.3646 101.094 10.9375C101.745 11.4974 102.318 12.1289 102.812 12.832L92.8125 24.8828ZM95.5469 13.8867C95.2995 13.7956 95.0521 13.737 94.8047 13.7109C94.5703 13.6849 94.3229 13.6719 94.0625 13.6719C93.3333 13.6719 92.6432 13.8086 91.9922 14.082C91.3542 14.3424 90.7943 14.7201 90.3125 15.2148C89.8438 15.7096 89.4727 16.3086 89.1992 17.0117C88.9258 17.7018 88.7891 18.4831 88.7891 19.3555C88.7891 19.5508 88.7956 19.7721 88.8086 20.0195C88.8346 20.2669 88.8672 20.5208 88.9062 20.7812C88.9583 21.0286 89.0169 21.2695 89.082 21.5039C89.1471 21.7383 89.2318 21.9466 89.3359 22.1289L95.5469 13.8867ZM110.879 30H105.508V0.761719H110.879V30ZM147.109 19.3555C147.109 20.9961 146.829 22.4935 146.27 23.8477C145.71 25.2018 144.948 26.3672 143.984 27.3438C143.021 28.3073 141.888 29.056 140.586 29.5898C139.297 30.1237 137.91 30.3906 136.426 30.3906C134.954 30.3906 133.568 30.1172 132.266 29.5703C130.977 29.0234 129.844 28.2617 128.867 27.2852C127.904 26.3086 127.142 25.1497 126.582 23.8086C126.022 22.4544 125.742 20.9701 125.742 19.3555V0.761719H131.094V10.5273C131.38 10.1628 131.725 9.83724 132.129 9.55078C132.546 9.26432 132.988 9.02995 133.457 8.84766C133.939 8.66536 134.434 8.52865 134.941 8.4375C135.449 8.33333 135.944 8.28125 136.426 8.28125C137.91 8.28125 139.297 8.5612 140.586 9.12109C141.888 9.66797 143.021 10.4362 143.984 11.4258C144.948 12.4154 145.71 13.5872 146.27 14.9414C146.829 16.2826 147.109 17.7539 147.109 19.3555ZM141.738 19.3555C141.738 18.5482 141.595 17.7995 141.309 17.1094C141.035 16.4062 140.658 15.8008 140.176 15.293C139.694 14.7852 139.128 14.388 138.477 14.1016C137.839 13.8151 137.155 13.6719 136.426 13.6719C135.697 13.6719 135.007 13.8346 134.355 14.1602C133.717 14.4727 133.158 14.8958 132.676 15.4297C132.194 15.9505 131.816 16.556 131.543 17.2461C131.27 17.9232 131.133 18.6263 131.133 19.3555C131.133 20.1628 131.27 20.9115 131.543 21.6016C131.816 22.2917 132.194 22.8906 132.676 23.3984C133.158 23.9062 133.717 24.3099 134.355 24.6094C135.007 24.8958 135.697 25.0391 136.426 25.0391C137.155 25.0391 137.839 24.8958 138.477 24.6094C139.128 24.3099 139.694 23.9062 140.176 23.3984C140.658 22.8906 141.035 22.2917 141.309 21.6016C141.595 20.9115 141.738 20.1628 141.738 19.3555ZM165.449 27.5586C165.02 27.9492 164.557 28.3203 164.062 28.6719C163.581 29.0104 163.073 29.3099 162.539 29.5703C162.005 29.8177 161.452 30.013 160.879 30.1562C160.319 30.3125 159.746 30.3906 159.16 30.3906C157.871 30.3906 156.66 30.1628 155.527 29.707C154.395 29.2513 153.398 28.6068 152.539 27.7734C151.693 26.9271 151.022 25.9049 150.527 24.707C150.046 23.4961 149.805 22.1419 149.805 20.6445V9.08203H155.117V20.6445C155.117 21.3477 155.221 21.9792 155.43 22.5391C155.651 23.0859 155.944 23.5482 156.309 23.9258C156.673 24.3034 157.096 24.5898 157.578 24.7852C158.073 24.9805 158.6 25.0781 159.16 25.0781C159.707 25.0781 160.221 24.9544 160.703 24.707C161.198 24.4466 161.628 24.1081 161.992 23.6914C162.357 23.2747 162.643 22.806 162.852 22.2852C163.06 21.7513 163.164 21.2044 163.164 20.6445V9.08203H168.496V30H167.207L165.449 27.5586ZM192.793 30H191.504L189.434 27.1289C188.926 27.5846 188.385 28.0143 187.812 28.418C187.253 28.8086 186.66 29.1536 186.035 29.4531C185.41 29.7396 184.766 29.9674 184.102 30.1367C183.451 30.306 182.786 30.3906 182.109 30.3906C180.638 30.3906 179.251 30.1172 177.949 29.5703C176.66 29.0104 175.527 28.2422 174.551 27.2656C173.587 26.276 172.826 25.1107 172.266 23.7695C171.706 22.4154 171.426 20.944 171.426 19.3555C171.426 17.7799 171.706 16.3151 172.266 14.9609C172.826 13.6068 173.587 12.4349 174.551 11.4453C175.527 10.4557 176.66 9.68099 177.949 9.12109C179.251 8.5612 180.638 8.28125 182.109 8.28125C182.578 8.28125 183.06 8.32031 183.555 8.39844C184.062 8.47656 184.551 8.60677 185.02 8.78906C185.501 8.95833 185.951 9.1862 186.367 9.47266C186.784 9.75911 187.135 10.1107 187.422 10.5273V0.761719H192.793V30ZM187.422 19.3555C187.422 18.6263 187.279 17.9232 186.992 17.2461C186.719 16.556 186.341 15.9505 185.859 15.4297C185.378 14.8958 184.811 14.4727 184.16 14.1602C183.522 13.8346 182.839 13.6719 182.109 13.6719C181.38 13.6719 180.69 13.8021 180.039 14.0625C179.401 14.3229 178.841 14.7005 178.359 15.1953C177.891 15.6771 177.52 16.2695 177.246 16.9727C176.973 17.6758 176.836 18.4701 176.836 19.3555C176.836 20.1237 176.973 20.8529 177.246 21.543C177.52 22.2331 177.891 22.8385 178.359 23.3594C178.841 23.8802 179.401 24.2904 180.039 24.5898C180.69 24.8893 181.38 25.0391 182.109 25.0391C182.839 25.0391 183.522 24.8828 184.16 24.5703C184.811 24.2448 185.378 23.8216 185.859 23.3008C186.341 22.7669 186.719 22.1615 186.992 21.4844C187.279 20.7943 187.422 20.0846 187.422 19.3555ZM217.09 30H215.801L213.73 27.1289C213.223 27.5846 212.682 28.0143 212.109 28.418C211.549 28.8086 210.957 29.1536 210.332 29.4531C209.707 29.7396 209.062 29.9674 208.398 30.1367C207.747 30.306 207.083 30.3906 206.406 30.3906C204.935 30.3906 203.548 30.1172 202.246 29.5703C200.957 29.0104 199.824 28.2422 198.848 27.2656C197.884 26.276 197.122 25.1107 196.562 23.7695C196.003 22.4154 195.723 20.944 195.723 19.3555C195.723 17.7799 196.003 16.3151 196.562 14.9609C197.122 13.6068 197.884 12.4349 198.848 11.4453C199.824 10.4557 200.957 9.68099 202.246 9.12109C203.548 8.5612 204.935 8.28125 206.406 8.28125C206.875 8.28125 207.357 8.32031 207.852 8.39844C208.359 8.47656 208.848 8.60677 209.316 8.78906C209.798 8.95833 210.247 9.1862 210.664 9.47266C211.081 9.75911 211.432 10.1107 211.719 10.5273V0.761719H217.09V30ZM211.719 19.3555C211.719 18.6263 211.576 17.9232 211.289 17.2461C211.016 16.556 210.638 15.9505 210.156 15.4297C209.674 14.8958 209.108 14.4727 208.457 14.1602C207.819 13.8346 207.135 13.6719 206.406 13.6719C205.677 13.6719 204.987 13.8021 204.336 14.0625C203.698 14.3229 203.138 14.7005 202.656 15.1953C202.188 15.6771 201.816 16.2695 201.543 16.9727C201.27 17.6758 201.133 18.4701 201.133 19.3555C201.133 20.1237 201.27 20.8529 201.543 21.543C201.816 22.2331 202.188 22.8385 202.656 23.3594C203.138 23.8802 203.698 24.2904 204.336 24.5898C204.987 24.8893 205.677 25.0391 206.406 25.0391C207.135 25.0391 207.819 24.8828 208.457 24.5703C209.108 24.2448 209.674 23.8216 210.156 23.3008C210.638 22.7669 211.016 22.1615 211.289 21.4844C211.576 20.7943 211.719 20.0846 211.719 19.3555ZM226.211 37.9688V32.5977L229.18 32.6367C229.701 32.6367 230.202 32.5521 230.684 32.3828C231.165 32.2135 231.608 31.9792 232.012 31.6797C232.428 31.3802 232.793 31.0221 233.105 30.6055C233.418 30.2018 233.672 29.7591 233.867 29.2773C233.281 29.5247 232.682 29.7721 232.07 30.0195C231.471 30.2669 230.866 30.3906 230.254 30.3906C228.965 30.3906 227.754 30.1628 226.621 29.707C225.488 29.2513 224.492 28.6068 223.633 27.7734C222.786 26.9271 222.116 25.9049 221.621 24.707C221.139 23.4961 220.898 22.1419 220.898 20.6445V9.08203H226.211V20.6445C226.211 21.3867 226.315 22.0378 226.523 22.5977C226.745 23.1445 227.038 23.6068 227.402 23.9844C227.767 24.349 228.19 24.6224 228.672 24.8047C229.167 24.987 229.694 25.0781 230.254 25.0781C230.801 25.0781 231.315 24.9544 231.797 24.707C232.292 24.4466 232.721 24.1081 233.086 23.6914C233.451 23.2747 233.737 22.806 233.945 22.2852C234.154 21.7513 234.258 21.2044 234.258 20.6445V9.08203H239.629V27.3633C239.616 28.8346 239.329 30.2148 238.77 31.5039C238.21 32.793 237.441 33.9193 236.465 34.8828C235.501 35.8464 234.375 36.6081 233.086 37.168C231.797 37.7279 230.417 38.0078 228.945 38.0078L226.211 37.9688Z" fill="white"/>
<path d="M250.273 28.0078C250.273 28.4766 250.189 28.9193 250.02 29.3359C249.85 29.7396 249.616 30.0911 249.316 30.3906C249.017 30.6901 248.665 30.9245 248.262 31.0938C247.858 31.276 247.422 31.3672 246.953 31.3672C246.497 31.3672 246.061 31.276 245.645 31.0938C245.241 30.9245 244.883 30.6901 244.57 30.3906C244.271 30.0911 244.03 29.7396 243.848 29.3359C243.678 28.9193 243.594 28.4766 243.594 28.0078C243.594 27.5521 243.678 27.1224 243.848 26.7188C244.03 26.3151 244.271 25.9635 244.57 25.6641C244.883 25.3646 245.241 25.1302 245.645 24.9609C246.061 24.7786 246.497 24.6875 246.953 24.6875C247.422 24.6875 247.858 24.7786 248.262 24.9609C248.665 25.1302 249.017 25.3646 249.316 25.6641C249.616 25.9635 249.85 26.3151 250.02 26.7188C250.189 27.1224 250.273 27.5521 250.273 28.0078Z" fill="#FF7A00"/>
</svg>
